<mxfile host="app.diagrams.net" modified="2021-01-31T09:23:56.715Z" agent="5.0 (Windows NT 10.0; WOW64) AppleWebKit/537.36 (KHTML, like Gecko) Chrome/70.0.3538.25 Safari/537.36 Core/1.70.3861.400 QQBrowser/10.7.4313.400" etag="WRG0YTIXsww3X5Zo1wxf" version="14.2.7" type="github">
  <diagram id="s-E9I-J_Y93IWlwAKrD2" name="Page-1">
    <mxGraphModel dx="1067" dy="488" grid="1" gridSize="10" guides="1" tooltips="1" connect="1" arrows="1" fold="1" page="1" pageScale="1" pageWidth="827" pageHeight="1169" math="0" shadow="0">
      <root>
        <mxCell id="0" />
        <mxCell id="1" parent="0" />
        <mxCell id="WCGH3zQjEyVRS78NS4z2-3" style="edgeStyle=orthogonalEdgeStyle;rounded=0;orthogonalLoop=1;jettySize=auto;html=1;" edge="1" parent="1" source="WCGH3zQjEyVRS78NS4z2-1" target="WCGH3zQjEyVRS78NS4z2-2">
          <mxGeometry relative="1" as="geometry" />
        </mxCell>
        <mxCell id="WCGH3zQjEyVRS78NS4z2-1" value="spring-cloud-netflix-ribbon-2.1.2.RELEASE.jar&lt;br&gt;spring.factories" style="rounded=1;whiteSpace=wrap;html=1;" vertex="1" parent="1">
          <mxGeometry x="260" y="90" width="270" height="60" as="geometry" />
        </mxCell>
        <mxCell id="WCGH3zQjEyVRS78NS4z2-6" style="edgeStyle=orthogonalEdgeStyle;rounded=0;orthogonalLoop=1;jettySize=auto;html=1;" edge="1" parent="1" source="WCGH3zQjEyVRS78NS4z2-2" target="WCGH3zQjEyVRS78NS4z2-4">
          <mxGeometry relative="1" as="geometry" />
        </mxCell>
        <mxCell id="WCGH3zQjEyVRS78NS4z2-2" value="&lt;pre style=&quot;background-color: rgb(255 , 255 , 255) ; font-size: 12pt&quot;&gt;&lt;span style=&quot;color: #008000 ; font-weight: bold&quot;&gt;RibbonAutoConfiguration&lt;/span&gt;&lt;/pre&gt;" style="rounded=1;whiteSpace=wrap;html=1;" vertex="1" parent="1">
          <mxGeometry x="255" y="210" width="280" height="60" as="geometry" />
        </mxCell>
        <mxCell id="WCGH3zQjEyVRS78NS4z2-7" style="edgeStyle=orthogonalEdgeStyle;rounded=0;orthogonalLoop=1;jettySize=auto;html=1;" edge="1" parent="1" source="WCGH3zQjEyVRS78NS4z2-4" target="WCGH3zQjEyVRS78NS4z2-5">
          <mxGeometry relative="1" as="geometry" />
        </mxCell>
        <mxCell id="WCGH3zQjEyVRS78NS4z2-4" value="&lt;pre style=&quot;background-color: rgb(255 , 255 , 255) ; font-size: 12pt&quot;&gt;springClientFactory&lt;/pre&gt;" style="rounded=1;whiteSpace=wrap;html=1;" vertex="1" parent="1">
          <mxGeometry x="297.5" y="340" width="195" height="60" as="geometry" />
        </mxCell>
        <mxCell id="WCGH3zQjEyVRS78NS4z2-10" style="edgeStyle=orthogonalEdgeStyle;rounded=0;orthogonalLoop=1;jettySize=auto;html=1;exitX=0.5;exitY=1;exitDx=0;exitDy=0;" edge="1" parent="1" source="WCGH3zQjEyVRS78NS4z2-5" target="WCGH3zQjEyVRS78NS4z2-9">
          <mxGeometry relative="1" as="geometry" />
        </mxCell>
        <mxCell id="WCGH3zQjEyVRS78NS4z2-5" value="&lt;pre style=&quot;background-color: rgb(255 , 255 , 255) ; font-size: 12pt&quot;&gt;NamedContextFactory&lt;/pre&gt;" style="rounded=1;whiteSpace=wrap;html=1;" vertex="1" parent="1">
          <mxGeometry x="305" y="490" width="180" height="60" as="geometry" />
        </mxCell>
        <mxCell id="WCGH3zQjEyVRS78NS4z2-8" value="继承" style="text;html=1;strokeColor=none;fillColor=none;align=center;verticalAlign=middle;whiteSpace=wrap;rounded=0;" vertex="1" parent="1">
          <mxGeometry x="400" y="440" width="40" height="20" as="geometry" />
        </mxCell>
        <mxCell id="WCGH3zQjEyVRS78NS4z2-9" value="&lt;pre style=&quot;background-color: rgb(255 , 255 , 255) ; font-size: 12pt&quot;&gt;&lt;span style=&quot;color: #000080 ; font-weight: bold&quot;&gt;protected &lt;/span&gt;AnnotationConfigApplicationContext createContext(String name){&lt;/pre&gt;&lt;pre style=&quot;background-color: rgb(255 , 255 , 255) ; font-size: 12pt&quot;&gt;//创建父子容器&lt;/pre&gt;&lt;pre style=&quot;background-color: rgb(255 , 255 , 255) ; font-size: 12pt&quot;&gt;}&lt;/pre&gt;" style="rounded=1;whiteSpace=wrap;html=1;" vertex="1" parent="1">
          <mxGeometry x="90" y="630" width="610" height="110" as="geometry" />
        </mxCell>
      </root>
    </mxGraphModel>
  </diagram>
</mxfile>
